<?xml version="1.0" encoding="UTF-8" standalone="no"?><!DOCTYPE svg PUBLIC "-//W3C//DTD SVG 1.1//EN" "http://www.w3.org/Graphics/SVG/1.1/DTD/svg11.dtd"><svg width="100%" height="100%" viewBox="0 0 923 756" version="1.1" xmlns="http://www.w3.org/2000/svg" xmlns:xlink="http://www.w3.org/1999/xlink" xml:space="preserve" xmlns:serif="http://www.serif.com/" style="fill-rule:evenodd;clip-rule:evenodd;stroke-linejoin:round;stroke-miterlimit:2;"><path d="M459.987,715.469c-31.289,-0 -60.456,-4.636 -85.26,-12.709l85.26,52.644l85.221,-52.644c-24.765,8.073 -53.971,12.709 -85.221,12.709Z" style="fill:#231f20;fill-rule:nonzero;"/><path d="M336.185,50.078c-0,8.255 -6.289,31.003 -32.956,31.003c-23.32,-0 -38.047,-15.495 -38.047,-40.547c0,-23.633 15.052,-40.534 38.047,-40.534c26.563,0 32.617,20.052 32.748,27.305l-11.172,-0c-0.443,-7.253 -6.394,-18.646 -21.576,-18.646c-17.89,-0 -26.784,14.531 -26.784,31.875c0,18.424 9.74,31.862 26.784,31.862c16.354,-0 21.472,-14.193 21.888,-22.318l11.068,0Z" style="fill:#231f20;fill-rule:nonzero;"/><rect x="358.958" y="1.836" width="10.846" height="77.396" style="fill:#231f20;fill-rule:nonzero;"/><path d="M453.841,24.805l-11.393,-0c-0,-9.414 -6.276,-16.146 -18.529,-16.029c-10.612,0 -17.135,4.753 -17.135,10.742c-0,8.659 9.219,11.589 20.156,14.61c10.859,3.046 30.365,7.057 30.365,24.401c-0,13.45 -11.276,22.552 -32.722,22.552c-17.799,-0 -31.992,-9.219 -31.992,-27.539l11.485,-0c-0,9.44 5.976,18.854 22.226,18.854c12.917,-0 19.518,-4.974 19.518,-12.005c0,-8.894 -9.752,-12.709 -22.226,-16.172c-12.37,-3.36 -28.281,-7.37 -28.281,-24.388c-0,-10.521 10.52,-19.74 28.697,-19.74c19.414,0 29.831,10.417 29.831,24.714Z" style="fill:#231f20;fill-rule:nonzero;"/><path d="M545.677,50.078c0,8.255 -6.276,31.003 -32.969,31.003c-23.294,-0 -38.033,-15.495 -38.033,-40.547c-0,-23.633 15.065,-40.534 38.033,-40.534c26.576,0 32.631,20.052 32.761,27.305l-11.159,-0c-0.456,-7.253 -6.406,-18.646 -21.602,-18.646c-17.877,-0 -26.757,14.531 -26.757,31.875c-0,18.424 9.739,31.862 26.757,31.862c16.368,-0 21.472,-14.193 21.914,-22.318l11.055,0Z" style="fill:#231f20;fill-rule:nonzero;"/><path d="M602.188,72.396c18.007,-0 26.77,-14.74 26.77,-31.862c0,-17.344 -8.893,-31.875 -26.77,-31.875c-17.891,-0 -26.784,14.531 -26.784,31.875c-0,18.424 9.765,31.862 26.784,31.862Zm-38.047,-31.862c-0,-24.18 14.414,-40.534 38.047,-40.534c22.656,0 38.033,15.273 38.033,40.534c0,25.482 -15.586,40.547 -38.033,40.547c-22.774,-0 -38.047,-15.495 -38.047,-40.547Z" style="fill:#231f20;fill-rule:nonzero;"/><path d="M162.448,152.266l594.779,-0l-298.451,-24.115l-296.328,24.115Z" style="fill:#231f20;fill-rule:nonzero;"/><path d="M757.227,378.268l-594.779,0l298.476,24.102l296.303,-24.102Z" style="fill:#231f20;fill-rule:nonzero;"/><path d="M334.297,285.924c-0,18.451 -14.063,69.336 -73.698,69.336c-52.122,0 -85.104,-34.661 -85.104,-90.664c-0,-52.838 33.698,-90.664 85.104,-90.664c59.401,0 72.969,44.857 73.216,61.094l-24.974,0c-0.976,-16.237 -14.297,-41.693 -48.242,-41.693c-40,0 -59.883,32.474 -59.883,71.263c0,41.224 21.823,71.276 59.883,71.276c36.615,0 47.995,-31.757 48.958,-49.948l24.74,0Z" style="fill:#231f20;fill-rule:nonzero;"/><path d="M519.714,285.924c-0,18.451 -14.05,69.336 -73.685,69.336c-52.123,0 -85.092,-34.661 -85.092,-90.664c0,-52.838 33.698,-90.664 85.092,-90.664c59.414,0 72.968,44.857 73.203,61.094l-24.961,0c-0.977,-16.237 -14.297,-41.693 -48.242,-41.693c-39.987,0 -59.87,32.474 -59.87,71.263c-0,41.224 21.81,71.276 59.87,71.276c36.614,0 48.007,-31.757 48.958,-49.948l24.727,0Z" style="fill:#231f20;fill-rule:nonzero;"/><rect x="556.068" y="178.047" width="24.245" height="173.112" style="fill:#231f20;fill-rule:nonzero;"/><path d="M623.919,351.159l0,-173.112l109.831,-0l0,20.859l-85.573,0l0,52.604l79.284,0l-0,20.86l-79.284,-0l0,57.929l87.5,0l0,20.86l-111.758,-0Z" style="fill:#231f20;fill-rule:nonzero;"/><path d="M800.977,66.51c25.273,91.993 26.809,167.566 5.169,251.563c-15.443,59.766 -44.115,116.029 -85.365,167.812c64.479,-62.239 139.662,-176.679 121.302,-362.942c-2.135,-18.698 -12.252,-42.839 -41.106,-56.433Z" style="fill:#231f20;fill-rule:nonzero;"/><path d="M838.359,410.091c1.172,-2.122 2.188,-4.219 3.269,-6.328c-1.081,2.109 -2.097,4.206 -3.269,6.328Zm-25.846,45.013l0,-0.013l0,0.013Zm0.547,-3.151c-0.404,0.625 -0.495,1.328 -0.547,2.018c0.013,-0.703 0.143,-1.393 0.547,-2.018Zm6.601,-9.154c-0.716,0.43 -1.328,0.977 -1.77,1.68c0.442,-0.703 1.054,-1.276 1.77,-1.68Zm2.318,-0.755c-0.013,0 -0.039,0.026 -0.052,0.026c0.013,0 0.039,-0.026 0.052,-0.026Zm-41.706,53.047c-0.247,0.3 -0.247,0.651 -0.39,0.99l-0.026,0.013c0.169,-0.326 0.169,-0.703 0.416,-1.003Zm109.245,-266.797c-0.078,0.104 -0.169,0.209 -0.234,0.326c0.091,-0.117 0.156,-0.222 0.234,-0.326Zm5.13,-48.58c-0.533,0.221 -1.093,0.442 -1.692,0.494c0.599,-0.052 1.159,-0.273 1.692,-0.494Zm-9.7,103.945c0.221,-0.013 0.417,-0 0.625,-0.013c5.299,-0.482 11.211,-2.188 17.161,-4.909c5.066,-2.422 12.331,-7.93 19.011,-20.742c-0.352,-0.065 -0.716,-0.183 -1.107,-0.261c-5.169,-1.185 -10.013,-1.601 -14.414,-1.211c-3.555,0.326 -6.771,1.159 -9.648,2.513c-0.808,0.339 -1.719,0.612 -2.735,0.691c-1.497,0.13 -3.047,-0.105 -4.101,-0.886c-0.131,-0.078 -0.196,-0.208 -0.339,-0.299c0.755,-4.844 1.419,-9.636 1.992,-14.297c0.508,-4.336 0.886,-8.464 1.289,-12.643c0.3,-0.157 0.521,-0.43 0.873,-0.495c0.091,-0.039 0.234,-0.091 0.364,-0.104c0.013,-0 0.052,-0.026 0.091,-0.039c6.159,-1.511 12.149,-5.013 17.54,-9.844c5.221,-4.597 8.749,-12.005 10.481,-22.11c-3.047,0.196 -5.976,0.599 -8.672,1.263c-4.974,1.224 -9.049,3.23 -12.135,6.029c-0.846,0.768 -2.135,1.445 -3.385,1.745c-1.185,0.273 -2.357,0.325 -3.321,-0.026c-0.065,-0.026 -0.104,-0.065 -0.182,-0.091c0.234,-5.144 0.456,-10.261 0.521,-15.065c0.065,-4.167 0.052,-8.178 -0.026,-12.045c0.091,0.638 0.221,1.25 0.299,1.914c0.43,-0.325 0.899,-0.625 1.393,-0.846c0.196,-0.039 0.326,-0.104 0.547,-0.143c0.052,-0.013 0.091,-0.065 0.17,-0.091c3.919,-1.563 8.75,-5.378 13.138,-12.149c2.122,-3.346 4.257,-9.232 3.255,-19.18c-0.534,0.222 -1.133,0.378 -1.719,0.652c-5.755,2.278 -9.909,5.416 -12.396,9.309c-0.312,0.547 -0.573,1.016 -0.833,1.511c-0.69,1.302 -1.966,2.37 -3.425,2.956c-0.299,0.117 -0.625,0.078 -0.937,0.143c-0.117,-1.966 -0.208,-3.958 -0.3,-5.807c-0.195,-2.93 -0.403,-5.691 -0.599,-8.334l-5.494,-38.385c-0,-0 -3.789,0.338 -3.789,6.289l-0,0.078c-0,0.039 0.013,0.104 0.013,0.13c1.419,24.375 4.244,103.529 -13.828,178.568c-10.339,36.068 -24.948,70.573 -43.998,103.359c-43.164,74.271 -106.263,136.055 -187.552,184.31c-3.125,1.927 -6.458,4.31 -9.818,6.888c-14.388,11.12 -16.744,19.961 -16.198,44.128c12.618,-8.242 14.232,-9.206 26.511,-17.552c13.307,-9.011 24.739,-16.953 30.39,-21.159c0.86,-0.651 30.534,-16.836 30.599,-16.862c8.256,-6.771 16.172,-13.62 23.789,-20.521c3.698,-3.372 7.11,-6.81 10.652,-10.195c6.354,4.531 17.265,7.851 29.609,8.633c2.148,0.13 4.271,0.104 6.419,-0.092c8.086,-0.729 16.966,-3.567 26.419,-8.489c2.878,-1.537 5.365,-3.008 7.344,-4.258c-10.156,-10.286 -20.937,-15.846 -31.992,-16.563c-4.115,-0.26 -8.451,-0.221 -13.203,0.196c-1.146,0.104 -2.162,-0.287 -3.086,-0.821c2.031,-2.109 4.154,-4.218 6.081,-6.328c5.56,-6.067 10.768,-12.161 15.872,-18.281c6.341,3.659 16.406,5.899 27.669,5.807c1.029,-0.026 2.019,-0.078 3.034,-0.169c7.878,-0.677 16.81,-3.932 25.834,-9.401c2.916,-1.732 5.416,-3.476 7.369,-4.896c-10.26,-8.75 -20.625,-13.164 -30.859,-13.086c-2.292,0 -4.453,0.104 -6.615,0.3c-2.135,0.195 -4.283,0.469 -6.341,0.807c-0.156,0.013 -0.273,0.039 -0.403,0.039c-1.042,0.104 -1.98,-0.195 -2.839,-0.599c0.013,-0.026 0.039,-0.065 0.052,-0.091c6.393,-8.463 12.461,-16.94 18.073,-25.417c-0.026,-0.026 0,-0.078 -0.026,-0.091c0.026,0.039 0.026,0.065 0.026,0.091c0.013,-0.026 0.013,-0.052 0.039,-0.078c6.55,3.008 16.328,4.258 27.162,3.282c8.684,-0.912 20.612,-4.701 35.351,-17.956c-1.81,-1.224 -4.023,-2.656 -6.614,-4.063c-8.62,-4.583 -16.967,-6.588 -24.831,-5.898c-3.425,0.338 -6.094,0.781 -8.672,1.315c-0.26,0.026 -0.456,0.078 -0.69,0.104c-2.005,0.169 -4.011,-0.599 -5.235,-2.135c-0.13,-0.144 -0.117,-0.339 -0.195,-0.495c-0.937,1.432 -1.966,2.851 -2.943,4.284c4.219,-7.071 8.282,-14.128 11.993,-21.146c1.81,-3.425 3.398,-6.836 5.091,-10.26c3.216,1.458 8.047,1.979 13.62,1.458c5.13,-0.456 10.742,-1.719 16.289,-3.698c9.166,-3.242 17.825,-10.951 25.664,-22.969c-1.081,-0.377 -2.279,-0.82 -3.607,-1.224c-6.81,-2.096 -13.255,-2.929 -19.037,-2.409c-2.89,0.248 -5.664,0.834 -8.19,1.745c-1.015,0.391 -1.927,0.768 -2.851,1.159l-1.367,0.586c-0.599,0.208 -1.198,0.378 -1.797,0.43c-1.693,0.143 -3.412,-0.417 -4.662,-1.563c-0.495,-0.456 -0.651,-1.094 -0.937,-1.654c-0.209,0.417 -0.443,0.821 -0.664,1.224c2.07,-4.947 4.036,-9.869 5.937,-14.765c1.992,-5.143 3.893,-10.261 5.664,-15.339c0.586,-1.653 0.99,-3.255 1.524,-4.883c1.536,0.013 2.995,0.118 4.7,-0.013c5.143,-0.468 10.834,-1.757 16.459,-3.776c9.205,-3.255 17.838,-10.95 25.703,-22.955c-1.068,-0.417 -2.279,-0.834 -3.581,-1.237c-6.836,-2.11 -13.242,-2.93 -19.076,-2.396c-2.903,0.26 -5.625,0.833 -8.216,1.758c-0.521,0.208 -1.08,0.312 -1.692,0.338c-1.68,0.169 -3.477,-0.247 -4.636,-1.289c-0.221,-0.195 -0.312,-0.456 -0.508,-0.664c0.638,-2.396 1.328,-4.805 1.914,-7.187c1.784,-7.162 3.282,-14.167 4.701,-21.094Z" style="fill:#231f20;fill-rule:nonzero;"/><path d="M121.042,66.51c-25.287,91.993 -26.81,167.566 -5.17,251.563c15.43,59.766 44.102,116.029 85.352,167.812c-64.466,-62.239 -139.661,-176.679 -121.302,-362.942c2.135,-18.698 12.252,-42.839 41.12,-56.433Z" style="fill:#231f20;fill-rule:nonzero;"/><path d="M80.417,403.763c1.054,2.109 2.083,4.206 3.229,6.328c-1.146,-2.122 -2.175,-4.219 -3.229,-6.328Zm29.088,51.341l0,-0.013l0,0.013Zm0.013,-1.133c-0.052,-0.69 -0.156,-1.393 -0.56,-2.018c0.417,0.625 0.547,1.315 0.56,2.018Zm-5.39,-9.492c-0.43,-0.703 -1.081,-1.25 -1.784,-1.68c0.729,0.404 1.354,0.977 1.784,1.68Zm-4.115,-2.435c0.026,0 0.039,0.026 0.091,0.026c-0.052,0 -0.065,-0.026 -0.091,-0.026Zm42.135,54.05l0,-0.013c-0.169,-0.339 -0.143,-0.69 -0.403,-0.99c0.26,0.3 0.234,0.677 0.403,1.003Zm-109.401,-267.474c-0.078,-0.117 -0.156,-0.222 -0.234,-0.326c0.078,0.104 0.156,0.209 0.234,0.326Zm-3.698,-48.412c-0.585,-0.052 -1.145,-0.273 -1.679,-0.494c0.534,0.221 1.094,0.442 1.679,0.494Zm12.722,124.545c0.599,2.382 1.289,4.791 1.901,7.187c-0.169,0.208 -0.248,0.469 -0.469,0.664c-1.185,1.042 -2.969,1.458 -4.648,1.289c-0.599,-0.026 -1.185,-0.13 -1.693,-0.338c-2.591,-0.925 -5.313,-1.498 -8.203,-1.758c-5.847,-0.534 -12.24,0.286 -19.089,2.396c-1.315,0.403 -2.513,0.82 -3.567,1.237c7.851,12.005 16.471,19.7 25.69,22.955c5.638,2.019 11.315,3.308 16.458,3.776c1.706,0.131 3.138,0.026 4.675,0.013c0.559,1.628 0.976,3.23 1.549,4.883c1.758,5.078 3.659,10.196 5.664,15.339c1.862,4.896 3.867,9.818 5.938,14.765c-0.222,-0.403 -0.482,-0.807 -0.691,-1.224c-0.273,0.56 -0.403,1.198 -0.911,1.654c-1.237,1.146 -2.969,1.706 -4.661,1.563c-0.599,-0.052 -1.198,-0.222 -1.784,-0.43l-1.381,-0.586c-0.924,-0.391 -1.822,-0.768 -2.838,-1.159c-2.539,-0.911 -5.313,-1.497 -8.203,-1.745c-5.794,-0.52 -12.214,0.313 -19.037,2.409c-1.341,0.404 -2.526,0.847 -3.593,1.224c7.825,12.018 16.471,19.727 25.638,22.969c5.56,1.979 11.172,3.242 16.302,3.698c5.573,0.521 10.416,-0 13.62,-1.458c1.705,3.424 3.281,6.835 5.091,10.26c3.711,7.018 7.773,14.075 11.966,21.146c-0.964,-1.433 -1.979,-2.852 -2.917,-4.284c-0.117,0.156 -0.091,0.351 -0.195,0.495c-1.237,1.536 -3.229,2.304 -5.235,2.135c-0.234,-0.026 -0.429,-0.078 -0.69,-0.104c-2.578,-0.534 -5.247,-0.977 -8.672,-1.315c-7.877,-0.69 -16.223,1.315 -24.83,5.898c-2.578,1.407 -4.805,2.839 -6.615,4.063c14.753,13.255 26.667,17.044 35.365,17.956c10.794,0.976 20.586,-0.274 27.135,-3.282c0.026,0.026 0.039,0.052 0.039,0.078c0.026,-0.026 0.026,-0.052 0.026,-0.091l0.013,0c-0.013,0.013 -0.013,0.065 -0.039,0.091c5.625,8.477 11.693,16.954 18.06,25.417c0.013,0.026 0.039,0.065 0.065,0.091c-0.859,0.404 -1.81,0.703 -2.825,0.599c-0.118,0 -0.261,-0.026 -0.404,-0.039c-2.07,-0.338 -4.219,-0.612 -6.354,-0.807c-2.149,-0.196 -4.323,-0.3 -6.602,-0.3c-10.247,-0.078 -20.599,4.336 -30.859,13.086c1.953,1.42 4.453,3.164 7.357,4.896c9.049,5.469 17.968,8.724 25.846,9.401c1.003,0.091 2.005,0.143 3.034,0.169c11.25,0.092 21.328,-2.148 27.656,-5.807c5.091,6.12 10.3,12.214 15.86,18.281c1.927,2.11 4.088,4.219 6.093,6.328c-0.924,0.534 28.464,28.217 32.175,31.589c7.591,6.901 23.893,20.599 23.945,20.638c-0.404,0.065 26.706,15.547 27.37,15.599c1.094,0.104 2.2,0.495 3.06,1.146c5.677,4.206 17.083,12.148 30.403,21.159c12.266,8.346 26.159,17.604 38.776,25.833c0.56,-24.154 -14.088,-41.289 -28.489,-52.409c-3.333,-2.578 -6.693,-4.961 -9.818,-6.888c-81.302,-48.255 -144.388,-110.039 -187.552,-184.31c-19.049,-32.786 -33.659,-67.291 -43.984,-103.359c-18.06,-75.039 -15.261,-154.193 -13.815,-178.568c-0,-0.026 -0,-0.091 0.013,-0.13c-0,-0.026 -0.013,-0.039 -0.013,-0.078c-0,-5.951 -3.776,-6.289 -3.776,-6.289l-5.482,38.385c-0.235,2.643 -0.443,5.404 -0.599,8.334c-0.143,1.849 -0.222,3.841 -0.313,5.807c-0.325,-0.065 -0.664,-0.026 -0.963,-0.143c-1.446,-0.586 -2.709,-1.654 -3.399,-2.956c-0.26,-0.495 -0.52,-0.964 -0.872,-1.511c-2.448,-3.893 -6.615,-7.031 -12.344,-9.309c-0.599,-0.274 -1.224,-0.43 -1.771,-0.652c-0.963,9.948 1.172,15.834 3.282,19.18c4.362,6.771 9.205,10.586 13.151,12.149c0.078,0.026 0.104,0.078 0.143,0.091c0.208,0.039 0.364,0.104 0.56,0.143c0.521,0.221 0.976,0.521 1.393,0.846c0.091,-0.664 0.195,-1.276 0.313,-1.914c-0.079,3.867 -0.092,7.878 -0.027,12.045c0.04,4.804 0.261,9.921 0.495,15.065c-0.052,0.026 -0.104,0.065 -0.143,0.091c-0.977,0.351 -2.161,0.299 -3.32,0.026c-1.289,-0.3 -2.539,-0.977 -3.412,-1.745c-3.086,-2.799 -7.174,-4.805 -12.122,-6.029c-2.721,-0.664 -5.625,-1.067 -8.672,-1.263c1.745,10.105 5.247,17.513 10.482,22.11c5.377,4.831 11.38,8.333 17.539,9.844c0.013,0.013 0.065,0.039 0.078,0.039c0.13,0.013 0.26,0.065 0.365,0.104c0.338,0.065 0.585,0.338 0.885,0.495c0.391,4.179 0.768,8.307 1.263,12.643c0.56,4.661 1.276,9.453 2.005,14.297c-0.13,0.091 -0.208,0.221 -0.338,0.299c-1.055,0.781 -2.605,1.016 -4.115,0.886c-1.003,-0.079 -1.94,-0.352 -2.734,-0.691c-2.865,-1.354 -6.094,-2.187 -9.636,-2.513c-4.414,-0.39 -9.258,0.026 -14.414,1.211c-0.39,0.078 -0.755,0.196 -1.133,0.261c6.706,12.812 13.946,18.32 19.024,20.742c5.937,2.721 11.862,4.427 17.161,4.909c0.209,0.013 0.43,-0 0.651,0.013c1.381,6.927 2.891,13.932 4.688,21.094Z" style="fill:#231f20;fill-rule:nonzero;"/><path d="M825.924,519.258c-93.489,-28.464 -246.953,-11.602 -368.346,5.182c-103.372,14.271 -308.685,39.688 -395.989,8.867c8.71,29.245 15.104,75.222 15.559,106.354c0.079,5.977 3.698,12.826 15.026,16.263c93.516,28.451 246.993,11.615 368.373,-5.169c103.372,-14.284 308.698,-39.7 395.989,-8.88c-8.893,-31.198 -15.299,-81.159 -15.559,-106.341c-0.053,-5.938 -1.25,-12.097 -15.053,-16.276Z" style="fill:#fff;fill-rule:nonzero;"/><path d="M460.547,650.755c-121.38,16.784 -274.857,33.62 -368.373,5.169c-11.328,-3.437 -14.947,-10.286 -15.026,-16.263c-0.455,-31.132 -6.849,-77.109 -15.559,-106.354c87.304,30.821 292.617,5.404 395.989,-8.867c121.393,-16.784 274.857,-33.646 368.346,-5.182c13.803,4.179 15,10.338 15.053,16.276c0.26,25.182 6.666,75.143 15.559,106.341c-87.291,-30.82 -292.617,-5.404 -395.989,8.88Zm385.768,-118.698c0.456,-11.458 -9.518,-16.041 -21.367,-19.479c-91.237,-26.484 -249.909,-10.312 -367.37,5.925c-60.729,8.411 -159.726,20.52 -245.976,23.073l-27.917,-23.737c-25.651,9.856 -41.159,8.567 -85.091,-3.763c-46.862,-13.165 -46.107,14.322 -43.164,22.929c10,29.206 14.869,70 16.523,106.12c0.547,11.458 9.362,16.029 21.224,19.479c91.237,26.485 249.922,10.287 367.37,-5.924c60.742,-8.399 159.739,-20.521 245.963,-23.086l1.993,28.021c25.651,-9.883 67.109,-12.839 111.015,-0.495c46.875,13.151 46.576,-14.505 43.177,-22.943c-8.971,-22.331 -17.018,-89.036 -16.38,-106.12Z" style="fill:#231f20;fill-rule:nonzero;"/><path d="M253.581,633.333l0.117,13.099l-48.281,0.378l-0.573,-70.794l47.291,-0.378l0.105,13.086l-31.732,0.26l0.117,14.662l29.948,-0.235l0.104,13.099l-29.935,0.235l0.13,16.849l32.709,-0.261Z" style="fill:#231f20;fill-rule:nonzero;"/><path d="M290.182,572.956l20.873,46.901l0.195,-0.026l10.43,-49.974l22.109,-2.188l6.953,70.508l-14.414,1.419l-5.156,-52.33l-0.404,0.039l-11.914,54.01l-11.953,1.185l-22.292,-50.156l-0.299,0.026l5.117,51.849l-14.518,1.432l-6.953,-70.508l22.226,-2.187Z" style="fill:#231f20;fill-rule:nonzero;"/><path d="M418.75,615.586l1.641,12.982l-47.891,6.08l-8.932,-70.208l46.901,-5.976l1.653,12.981l-31.471,3.998l1.862,14.57l29.701,-3.776l1.653,12.982l-29.7,3.776l2.122,16.719l32.461,-4.128Z" style="fill:#231f20;fill-rule:nonzero;"/><path d="M462.578,585.312c8.255,-1.002 12.344,-5.182 11.589,-11.38c-0.651,-5.416 -4.545,-9.531 -13.985,-8.385c0,-0 -9.049,1.107 -14.271,1.732l2.409,19.765c5.899,-0.716 14.258,-1.732 14.258,-1.732Zm-1.12,-33.098c20.443,-2.474 27.292,9.479 28.451,19.114c1.745,14.362 -8.464,19.883 -11.159,21.419c0,0 3.008,4.323 18.164,26.433l-16.615,2.005l-16.132,-23.581l-14.362,1.732l3.047,25.182l-15.443,1.875l-8.503,-70.221c24.974,-3.021 32.552,-3.958 32.552,-3.958Z" style="fill:#231f20;fill-rule:nonzero;"/><path d="M526.732,615.859l-15.482,1.745l-7.943,-70.364l15.469,-1.745l7.956,70.364Z" style="fill:#231f20;fill-rule:nonzero;"/><path d="M590.26,551.042l-21.08,2.213l6.015,57.357l-15.468,1.628l-6.016,-57.37l-21.094,2.213l-1.354,-13.007l57.643,-6.042l1.354,13.008Z" style="fill:#231f20;fill-rule:nonzero;"/><path d="M606.302,581.133c0,-0 -1.51,-17.487 -3.854,-44.531l15.495,-1.342c2.916,33.672 3.828,44.336 3.828,44.336c0.911,10.365 8.008,14.232 15.911,13.542c7.8,-0.677 14.102,-5.885 13.229,-16.068c0,0 -1.132,-13.125 -3.828,-44.336l15.495,-1.341c2.253,26.081 3.854,44.544 3.854,44.544c1.589,18.464 -9.258,28.646 -27.63,30.235c-19.753,1.719 -31.003,-7.565 -32.5,-25.039Z" style="fill:#231f20;fill-rule:nonzero;"/><path d="M735.573,549.154c-4.076,0.143 -10.716,0.364 -15.078,0.52c-0.222,-6.549 -5.222,-10.559 -14.154,-10.247c-5.95,0.208 -10.716,2.852 -10.547,7.617c0.183,5.143 5.404,7.162 10.808,8.451c2.304,0.416 7.2,1.536 10.299,2.331c7.708,1.731 21.602,4.726 22.109,19.791c0.391,11.107 -6.849,23.073 -28.658,23.815c-19.232,0.651 -30.482,-8.893 -31.003,-24.153c3.581,-0.131 12.096,-0.417 15.065,-0.521c0.247,7.044 5.013,12.929 16.12,12.552c7.044,-0.234 13.685,-3.242 13.489,-8.802c-0.234,-6.823 -8.125,-8.542 -14.726,-10c-4.011,-0.873 -6.511,-1.485 -10.3,-2.24c-10.416,-2.435 -17.851,-8.333 -18.229,-19.336c-0.442,-12.786 10.703,-21.002 25.873,-21.523c20.82,-0.716 28.528,10.143 28.932,21.745Z" style="fill:#231f20;fill-rule:nonzero;"/><path d="M298.49,546.836c-5.222,-10.104 -10.456,-20.339 -15.678,-30.716c4.714,-7.787 9.454,-19.61 14.167,-27.656c159.206,-4.388 182.643,-29.271 325.13,-29.102c5.222,10.117 10.443,24.258 15.677,34.635c-4.713,7.774 -9.453,13.086 -14.166,21.159c-136.485,2.474 -167.435,28.92 -325.13,31.68Z" style="fill:#231f20;fill-rule:nonzero;"/><path d="M352.435,499.049l2.292,28.555l16.822,-1.354l0.495,6.055l-24.896,2.005l-2.799,-34.596l8.086,-0.665Z" style="fill:#fff;fill-rule:nonzero;"/><path d="M384.661,495.977l3.763,34.492l-8.046,0.898l-3.763,-34.518l8.046,-0.872Z" style="fill:#fff;fill-rule:nonzero;"/><path d="M416.406,512.839l-12.344,1.601l1.81,13.919l-8.033,1.029l-4.467,-34.414l21.849,-2.839l0.756,5.782l-13.816,1.797l1.172,9.179l12.357,-1.601l0.716,5.547Z" style="fill:#fff;fill-rule:nonzero;"/><path d="M447.383,507.617l-13.776,2.057l1.302,8.777l15.169,-2.266l0.859,5.768l-23.19,3.464l-5.104,-34.336l23.164,-3.477l0.886,5.886l-15.17,2.252l1.25,8.399l13.79,-2.058l0.82,5.534Z" style="fill:#fff;fill-rule:nonzero;"/><path d="M480.638,488.242l-10.182,1.615l4.466,28.281l-8.008,1.276l-4.453,-28.294l-10.065,1.588l-0.951,-6.002l28.243,-4.466l0.95,6.002Z" style="fill:#fff;fill-rule:nonzero;"/><path d="M494.961,479.883l5.247,34.31l-8.007,1.224l-5.248,-34.323l8.008,-1.211Z" style="fill:#fff;fill-rule:nonzero;"/><path d="M523.893,510.807l-11.263,-22.63l2.969,23.685l-6.771,0.859l-4.362,-34.44l9.193,-1.159l12.721,25.69l5.651,-28.02l9.401,-1.198l4.362,34.453l-7.278,0.911l-2.995,-23.724l-5.078,24.74l-6.55,0.833Z" style="fill:#fff;fill-rule:nonzero;"/><path d="M574.688,491.341l-13.907,0.899l0.586,8.854l15.3,-1.003l0.377,5.82l-23.385,1.524l-2.266,-34.636l23.399,-1.523l0.377,5.925l-15.312,0.989l0.56,8.464l13.919,-0.912l0.352,5.599Z" style="fill:#fff;fill-rule:nonzero;"/></svg>